<?xml version="1.0" encoding="UTF-8"?>
<svg width="382px" height="307px" viewBox="0 0 382 307" version="1.1" xmlns="http://www.w3.org/2000/svg" xmlns:xlink="http://www.w3.org/1999/xlink">
    <!-- Generator: Sketch 52.5 (67469) - http://www.bohemiancoding.com/sketch -->
    <title>feature-continuous-deployment</title>
    <desc>Created with Sketch.</desc>
    <defs>
        <linearGradient x1="50%" y1="0%" x2="50%" y2="100%" id="linearGradient-1">
            <stop stop-color="#0F1E24" offset="0%"></stop>
            <stop stop-color="#A3A9AC" offset="100%"></stop>
        </linearGradient>
        <path d="M28.1615016,20.2140961 L28.1615016,81.6186603 L0.48679342,81.6186603 L0.48679342,20.2140961 L0.48679342,9.17690985 L108.78714,9.17690985 L108.78714,20.2140961 L28.1615016,20.2140961 Z" id="path-2"></path>
        <filter x="-29.5%" y="-38.7%" width="159.1%" height="188.3%" filterUnits="objectBoundingBox" id="filter-3">
            <feOffset dx="0" dy="4" in="SourceAlpha" result="shadowOffsetOuter1"></feOffset>
            <feGaussianBlur stdDeviation="10" in="shadowOffsetOuter1" result="shadowBlurOuter1"></feGaussianBlur>
            <feColorMatrix values="0 0 0 0 0   0 0 0 0 0   0 0 0 0 0  0 0 0 0.0683876812 0" type="matrix" in="shadowBlurOuter1"></feColorMatrix>
        </filter>
        <path d="M3.58439342,0.259551419 L105.68954,0.259551419 C107.400298,0.259551419 108.78714,1.64639418 108.78714,3.35715142 L108.78714,9.30723299 L0.48679342,9.30723299 L0.48679342,3.35715142 C0.48679342,1.64639418 1.87363618,0.259551419 3.58439342,0.259551419 Z" id="path-4"></path>
        <filter x="-9.2%" y="-88.4%" width="118.5%" height="321.1%" filterUnits="objectBoundingBox" id="filter-5">
            <feOffset dx="0" dy="2" in="SourceAlpha" result="shadowOffsetOuter1"></feOffset>
            <feGaussianBlur stdDeviation="3" in="shadowOffsetOuter1" result="shadowBlurOuter1"></feGaussianBlur>
            <feColorMatrix values="0 0 0 0 0   0 0 0 0 0   0 0 0 0 0  0 0 0 0.0683876812 0" type="matrix" in="shadowBlurOuter1"></feColorMatrix>
        </filter>
        <linearGradient x1="100%" y1="87.9312694%" x2="0%" y2="5.21353097%" id="linearGradient-6">
            <stop stop-color="#C8C8C8" stop-opacity="0.128877944" offset="0%"></stop>
            <stop stop-color="#5D686D" offset="100%"></stop>
        </linearGradient>
        <rect id="path-7" x="0.107705454" y="0.00470502065" width="93.2293467" height="93.2293467" rx="9.15402532"></rect>
        <filter x="-19.8%" y="-18.8%" width="139.7%" height="139.7%" filterUnits="objectBoundingBox" id="filter-8">
            <feOffset dx="0" dy="1" in="SourceAlpha" result="shadowOffsetOuter1"></feOffset>
            <feGaussianBlur stdDeviation="6" in="shadowOffsetOuter1" result="shadowBlurOuter1"></feGaussianBlur>
            <feColorMatrix values="0 0 0 0 0   0 0 0 0 0   0 0 0 0 0  0 0 0 0.0683876812 0" type="matrix" in="shadowBlurOuter1"></feColorMatrix>
        </filter>
        <radialGradient cx="50%" cy="-50%" fx="50%" fy="-50%" r="100.10989%" gradientTransform="translate(0.500000,-0.500000),scale(1.000000,0.998901),rotate(90.000000),translate(-0.500000,0.500000)" id="radialGradient-9">
            <stop stop-color="#20C6B7" offset="0%"></stop>
            <stop stop-color="#4D9ABF" offset="100%"></stop>
        </radialGradient>
    </defs>
    <g id="feature-continuous-deployment" stroke="none" stroke-width="1" fill="none" fill-rule="evenodd">
        <path d="M11,0 L368.27,0 C374.345132,-1.11598369e-15 379.27,4.92486775 379.27,11 L379.27,295.649632 C379.27,301.724765 374.345132,306.649632 368.27,306.649632 L11,306.649632 C4.92486775,306.649632 7.43989126e-16,301.724765 0,295.649632 L0,11 C-7.43989126e-16,4.92486775 4.92486775,1.11598369e-15 11,0 Z" id="gradient-background" fill="url(#linearGradient-1)" opacity="0.0370535714"></path>
        <g id="continuous-deployment-minimal-ver" transform="translate(15.135000, 11.543208)">
            <g id="Group-38" transform="translate(27.241711, 253.690069) scale(-1, 1) translate(-27.241711, -253.690069) translate(0.741711, 224.690069)">
                <path d="M0.209658,50.7752831 L0.209658,7.01419805 L52.145302,7.01419805 L52.145302,27.1918335 L52.145302,50.7752831 C50.5244266,54.9538267 41.868486,57.0430986 26.17748,57.0430986 C11.8358479,57.0430986 0.209658,54.236902 0.209658,50.7752831 Z" id="Combined-Shape" fill="#E9EBEB"></path>
                <path d="M52.0860439,28.5049744 C52.0860439,25.0433555 40.4598539,22.2371589 26.1182218,22.2371589 C11.7765897,22.2371589 0.150399815,25.0433555 0.150399815,28.5049744" id="Oval-5" stroke="#FFFFFF" stroke-width="2" transform="translate(26.118222, 25.371067) scale(1, -1) translate(-26.118222, -25.371067) "></path>
                <path d="M52.0860439,43.7279352 C52.0860439,40.2663163 40.4598539,37.4601197 26.1182218,37.4601197 C11.7765897,37.4601197 0.150399815,40.2663163 0.150399815,43.7279352" id="Oval-5" stroke="#FFFFFF" stroke-width="2" transform="translate(26.118222, 40.594027) scale(1, -1) translate(-26.118222, -40.594027) "></path>
                <ellipse id="Oval-5" fill="#E9EBEB" cx="26.1182218" cy="7.01419805" rx="25.967822" ry="6.26781552"></ellipse>
                <path d="M52.3322287,13.746746 C52.3322287,10.285127 40.7060387,7.47893045 26.3644066,7.47893045 C12.0227746,7.47893045 0.396584628,10.285127 0.396584628,13.746746" id="Oval-5" stroke="#FFFFFF" stroke-width="2" transform="translate(26.364407, 10.612838) scale(1, -1) translate(-26.364407, -10.612838) "></path>
            </g>
            <g id="Group-58" transform="translate(243.602784, 0.783207)">
                <path d="M3.58439342,0.259551419 L105.68954,0.259551419 C107.400298,0.259551419 108.78714,1.64639418 108.78714,3.35715142 L108.78714,81.6186603 L0.48679342,81.6186603 L0.48679342,3.35715142 C0.48679342,1.64639418 1.87363618,0.259551419 3.58439342,0.259551419 Z" id="Rectangle-7" fill="#FFFFFF"></path>
                <g id="Combined-Shape">
                    <use fill="black" fill-opacity="1" filter="url(#filter-3)" xlink:href="#path-2"></use>
                    <use fill="#FFFFFF" fill-rule="evenodd" xlink:href="#path-2"></use>
                </g>
                <g id="Rectangle-7">
                    <use fill="black" fill-opacity="1" filter="url(#filter-5)" xlink:href="#path-4"></use>
                    <use fill="#FFFFFF" fill-rule="evenodd" xlink:href="#path-4"></use>
                </g>
                <circle id="Oval-2" fill="#FA3945" opacity="0.568694196" cx="5.37724517" cy="4.79890359" r="1.46817961"></circle>
                <circle id="Oval-2" fill="#F6BC02" opacity="0.568694196" cx="9.99152394" cy="4.79890359" r="1.46817961"></circle>
                <circle id="Oval-2" fill="#00C7B7" opacity="0.568694196" cx="14.6058027" cy="4.79890359" r="1.46817961"></circle>
                <polygon id="Rectangle-12" fill="#E9EBEB" points="23.2621539 3.0468752 100.698537 3.0468752 100.698537 6.46376761 23.2621539 6.46376761"></polygon>
                <path d="M36.5518339,27.5777078 L57.4777806,27.5777078 C58.32609,27.5777078 59.0137806,28.2653984 59.0137806,29.1137078 L59.0137806,30.0413656 C59.0137806,30.889675 58.32609,31.5773656 57.4777806,31.5773656 L36.5518339,31.5773656 C35.7035245,31.5773656 35.0158339,30.889675 35.0158339,30.0413656 L35.0158339,29.1137078 C35.0158339,28.2653984 35.7035245,27.5777078 36.5518339,27.5777078 Z" id="Rectangle-8" fill="#E9EBEB" opacity="0.878236607"></path>
                <rect id="Rectangle-4" fill="#E9EBEB" opacity="0.762723214" x="35.0158339" y="46.6255566" width="66.994268" height="16.9985456" rx="1.536"></rect>
                <path d="M41.1041872,51.9278684 L84.6101663,51.9278684" id="Path-22" stroke="#BEC2C3" stroke-width="0.5"></path>
                <path d="M41.1041872,55.9599354 L56.8916698,55.9599354" id="Path-22" stroke="#BEC2C3" stroke-width="0.5"></path>
                <path d="M41.1041872,59.4920452 L63.359319,59.4920452" id="Path-22" stroke="#BEC2C3" stroke-width="0.5"></path>
                <path d="M35.9250543,68.4956938 L96.7833421,68.4956938" id="Path-23" stroke="#BEC2C3" stroke-width="0.5"></path>
                <path d="M35.9250543,35.9072221 L96.7833421,35.9072221" id="Path-23" stroke="#BEC2C3" stroke-width="0.5"></path>
                <path d="M35.9250543,41.2381869 L79.840074,41.2381869" id="Path-23" stroke="#BEC2C3" stroke-width="0.5"></path>
                <path d="M35.9250543,74.1434498 L85.48783,74.1434498" id="Path-23" stroke="#BEC2C3" stroke-width="0.5"></path>
                <g id="Group-8" transform="translate(6.618464, 27.576934)" stroke-linecap="round" stroke-width="2">
                    <path d="M0.134555322,1.54662055 L14.5859929,1.54662055" id="Path-18" stroke="#E7645C"></path>
                    <path d="M0.134555322,7.98893284 L14.5859929,7.98893284" id="Path-18" stroke="#00C7B7"></path>
                    <path d="M0.134555322,14.4312451 L14.5859929,14.4312451" id="Path-18" stroke="#F9D86E"></path>
                    <path d="M0.134555322,20.8735574 L14.5859929,20.8735574" id="Path-18" stroke="#E7645C"></path>
                    <path d="M0.134555322,27.3158697 L14.5859929,27.3158697" id="Path-18" stroke="#F9D86E"></path>
                    <path d="M0.134555322,33.758182 L14.5859929,33.758182" id="Path-18" stroke="#00C7B7"></path>
                </g>
                <g id="Group-17" transform="translate(33.886283, 42.672127)"></g>
            </g>
            <g id="Group-42" opacity="0.524832589" transform="translate(97.497168, 209.846670) rotate(28.000000) translate(-97.497168, -209.846670) translate(83.497168, 176.346670)">
                <path d="M0.184355438,13.1383628 C13.7727274,28.1934247 18.6797627,45.8544787 14.9054615,66.1215248" id="Path-65" stroke="url(#linearGradient-6)" stroke-width="2" stroke-linecap="round" transform="translate(8.160252, 39.629944) scale(-1, 1) translate(-8.160252, -39.629944) "></path>
                <polyline id="Path-61" fill="#5D686D" transform="translate(20.787517, 6.668534) rotate(36.000000) translate(-20.787517, -6.668534) " points="14.2932829 9.85559548 20.7875168 3.48147175 27.2817508 9.85559548"></polyline>
            </g>
            <g id="Group-42" opacity="0.524832589" transform="translate(257.367197, 143.233061) scale(-1, 1) rotate(-59.000000) translate(-257.367197, -143.233061) translate(244.867197, 109.233061)">
                <path d="M0.763064207,12.9078652 C13.3247162,29.3256623 16.638245,47.4407486 10.7036506,67.2531241" id="Path-65" stroke="url(#linearGradient-6)" stroke-width="2" stroke-linecap="round" transform="translate(7.161461, 40.080495) scale(-1, 1) translate(-7.161461, -40.080495) "></path>
                <polyline id="Path-61" fill="#5D686D" transform="translate(18.045106, 6.551542) rotate(36.000000) translate(-18.045106, -6.551542) " points="11.7828085 9.68269029 18.0451055 3.4203933 24.3074025 9.68269029"></polyline>
            </g>
            <g id="Group-6" transform="translate(128.214467, 94.032866)">
                <g id="Group-27" transform="translate(0.912537, 0.040999)">
                    <g id="Rectangle-8">
                        <use fill="black" fill-opacity="1" filter="url(#filter-8)" xlink:href="#path-7"></use>
                        <use fill="#FFFFFF" fill-rule="evenodd" xlink:href="#path-7"></use>
                    </g>
                </g>
                <g id="logomark" transform="translate(13.334707, 11.798197)" fill="url(#radialGradient-9)" fill-rule="nonzero">
                    <path d="M49.7154853,24.3575855 L49.6904125,24.34684 C49.6760852,24.3414672 49.6617579,24.3360945 49.6492215,24.3235581 C49.6075746,24.2788246 49.5890494,24.2172944 49.599076,24.1570033 L50.9834511,15.6931526 L57.4755075,22.187 L50.7237688,25.059623 C50.7050053,25.0671895 50.6848947,25.0708459 50.6646687,25.0703685 L50.637805,25.0703685 C50.6288505,25.0649957 50.6198959,25.0578321 50.6019868,25.039923 C50.3507203,24.7601565 50.0502426,24.5288796 49.7154853,24.3575855 Z M59.1321012,23.8418028 L66.0736766,30.7833781 C67.5153609,32.2268533 68.2370985,32.9468 68.5003625,33.781365 C68.5397626,33.904938 68.571999,34.0285109 68.5970718,34.1556657 L52.0078528,27.1299174 C51.9989383,27.1262363 51.9899831,27.1226543 51.9809891,27.1191719 C51.9147254,27.0923083 51.8377162,27.0618628 51.8377162,26.9938081 C51.8377162,26.9257534 51.9165163,26.893517 51.98278,26.8666533 L52.004271,26.8576988 L59.1321012,23.8418028 Z M68.3141077,36.3835604 C67.9559253,37.0569433 67.2574695,37.755399 66.0754675,38.939192 L58.2491816,46.763687 L48.1269462,44.6557835 L48.0732189,44.645038 C47.9836733,44.6307107 47.8887549,44.6145925 47.8887549,44.5340014 C47.8110452,43.6899282 47.386171,42.9160733 46.7157075,42.3974433 C46.6745165,42.3562523 46.685262,42.2917795 46.6977984,42.2326794 C46.6977984,42.2237248 46.6977984,42.2147702 46.7013802,42.2076066 L48.6051198,30.5201141 L48.6122834,30.480714 C48.6230289,30.3911684 48.6391471,30.2872955 48.7197381,30.2872955 C49.543851,30.1847753 50.2923084,29.7557028 50.7971962,29.0963389 C50.8133144,29.0784298 50.8240599,29.0587298 50.8455508,29.0479843 C50.90286,29.0211206 50.9709147,29.0479843 51.0300148,29.0730571 L68.3123168,36.3835604 L68.3141077,36.3835604 Z M56.4493149,48.5635537 L43.5798204,61.4330482 L45.7826423,47.8937526 L45.7862241,47.8758435 C45.788015,47.8579343 45.7915968,47.8400252 45.7969696,47.823907 C45.8148787,47.7809251 45.8614424,47.763016 45.9062152,47.7451069 L45.9277061,47.7361523 C46.410027,47.5303669 46.836614,47.2130353 47.1723901,46.8102507 C47.215372,46.7601052 47.2673084,46.7117506 47.3335722,46.702796 C47.3507705,46.6999885 47.3683103,46.6999885 47.3855086,46.702796 L56.447524,48.5653446 L56.4493149,48.5635537 Z M40.855843,64.1570256 L39.4052042,65.6076644 L23.3675861,42.4296797 C23.3617866,42.4212018 23.3558157,42.4128425 23.349677,42.4046069 C23.3246042,42.3705796 23.2977406,42.3365523 23.3031133,42.2971522 C23.3049042,42.2684976 23.3228133,42.2434248 23.3425134,42.2219339 L23.3604225,42.198652 C23.4087771,42.1270155 23.4499681,42.0553791 23.4947409,41.9783698 L23.5305591,41.9156879 L23.5359319,41.9103152 C23.5610046,41.8673333 23.5842865,41.8261423 23.6272684,41.8028604 C23.6648775,41.7849513 23.716814,41.792115 23.758005,41.8010695 L41.5256441,45.4652757 C41.5753245,45.4730014 41.6221899,45.4933509 41.6617535,45.5243758 C41.6850353,45.5476577 41.6904081,45.5727305 41.6957808,45.6013851 C41.9470112,46.5519301 42.6280997,47.3304117 43.5368385,47.7057068 C43.586984,47.7307796 43.5654931,47.7862978 43.5422112,47.8453979 C43.5305953,47.8713 43.521596,47.8982978 43.5153475,47.925989 C43.2914835,49.2870822 41.3716257,60.9960657 40.855843,64.1570256 Z M37.8256197,67.185458 C36.7564452,68.243887 36.1260441,68.8044425 35.4132611,69.0300974 C34.7104644,69.2523321 33.9562178,69.2523321 33.253421,69.0300974 C32.418856,68.7650425 31.6971184,68.0450958 30.2554342,66.6016206 L14.1497614,50.4959479 L18.356614,43.971655 C18.376314,43.9394186 18.3960141,43.910764 18.4282505,43.8874822 C18.4730233,43.8552457 18.5374961,43.869573 18.5912235,43.8874822 C19.5568125,44.1787944 20.5935412,44.1262617 21.5247376,43.7388364 C21.5730922,43.7209273 21.6214468,43.7083909 21.659056,43.7424183 C21.6778628,43.7595849 21.6946833,43.7788083 21.7092015,43.7997275 L37.8256197,67.1872489 L37.8256197,67.185458 Z M12.5970406,48.9432271 L8.90238891,45.2485754 L16.1985649,42.1359701 C16.2172145,42.1278378 16.2373199,42.1235731 16.257665,42.1234337 C16.318556,42.1234337 16.3543743,42.1843247 16.3866107,42.239843 C16.4599342,42.3526497 16.5375986,42.4625746 16.6194293,42.5693708 L16.6427111,42.5980254 C16.6642021,42.6284709 16.6498748,42.6589164 16.6283838,42.687571 L12.5988315,48.9432271 L12.5970406,48.9432271 Z M7.26728614,43.6134726 L2.5930055,38.939192 C1.79784052,38.144027 1.22116682,37.5673533 0.8200025,37.0712706 L15.0326811,40.019112 C15.0505347,40.0224208 15.0684468,40.0254062 15.0864085,40.0280665 C15.1741632,40.0423938 15.2708724,40.058512 15.2708724,40.140894 C15.2708724,40.2304396 15.1652086,40.2716306 15.075663,40.3056579 L15.034472,40.323567 L7.26728614,43.6134726 Z M0.00334657238,34.6678665 C0.0195438615,34.3667594 0.0736996124,34.0689028 0.164528663,33.781365 C0.429583658,32.9468 1.14953033,32.2268533 2.5930055,30.7833781 L8.57465199,24.8017317 C11.328776,28.7988321 14.0903673,32.7907822 16.8594115,36.777561 C16.9077661,36.8420339 16.9614935,36.9136703 16.9059752,36.9673977 C16.644502,37.2557346 16.3830288,37.5709351 16.1985649,37.9129993 C16.1785533,37.956968 16.1477504,37.9951636 16.1090193,38.0240359 C16.0857374,38.0383632 16.0606647,38.0329904 16.033801,38.0276177 L16.0302192,38.0276177 L0.00334657238,34.6660756 L0.00334657238,34.6678665 Z M10.1757274,23.2006562 L18.2187138,15.1576699 C18.9744787,15.4889886 21.7253197,16.6512906 24.186033,17.6900196 C26.0485816,18.478021 27.7463663,19.1943858 28.2800581,19.4272044 C28.3337854,19.4486953 28.3821401,19.4701863 28.4054219,19.5239136 C28.4197492,19.55615 28.4125856,19.597341 28.4054219,19.6313684 C28.1467978,20.8107201 28.4988042,22.0410599 29.342069,22.9051557 C29.3957963,22.9588831 29.342069,23.0358923 29.2955053,23.1021561 L29.2704325,23.1397652 L21.1038732,35.7889775 C21.0823823,35.8247958 21.0626822,35.8552413 21.026864,35.8785231 C20.9838821,35.9053868 20.9229911,35.8928504 20.8728455,35.880314 C20.5552182,35.7970973 20.2286926,35.7525984 19.9003803,35.7477866 C19.6066707,35.7477866 19.2878883,35.8015139 18.9655241,35.860614 L18.9637332,35.860614 C18.927915,35.8659868 18.8956786,35.8731504 18.867024,35.8516595 C18.8353757,35.8257954 18.808155,35.7949454 18.7864329,35.7603229 L10.1757274,23.2006562 Z M19.8430711,13.5333126 L30.2554342,3.12094949 C31.6971184,1.67926524 32.418856,0.95752765 33.253421,0.694263568 C33.9562178,0.472028932 34.7104644,0.472028932 35.4132611,0.694263568 C36.2478261,0.95752765 36.9695637,1.67926524 38.411248,3.12094949 L40.6677972,5.37749877 L33.2623756,16.8465 C33.2440558,16.8798881 33.2190617,16.9091495 33.1889482,16.9324638 C33.1441754,16.9629093 33.0814935,16.9503729 33.0277661,16.9324638 C31.8424424,16.5727521 30.5559787,16.8206644 29.5892148,17.5951013 C29.5408602,17.6452468 29.4692237,17.6165922 29.4083327,17.5897285 C28.4412402,17.1688642 20.9194093,13.9899952 19.8430711,13.5333126 Z M42.2402181,6.94991961 L49.0779206,13.7876221 L47.4302814,23.9922394 L47.4302814,24.0191031 C47.4288103,24.0423599 47.4239846,24.0652818 47.4159541,24.0871577 C47.398045,24.122976 47.3622268,24.1301396 47.3264085,24.1408851 C46.9741345,24.2475903 46.6423524,24.4128759 46.3449887,24.6298041 C46.3322045,24.6389147 46.3202216,24.6491002 46.3091704,24.6602496 C46.2894704,24.6817405 46.2697704,24.7014406 46.2375339,24.7050224 C46.211297,24.705833 46.1851499,24.7015765 46.1605247,24.692486 L35.740998,20.2653512 L35.721298,20.2563967 C35.6550342,20.229533 35.5762341,20.1972966 35.5762341,20.1292419 C35.5149907,19.5486 35.3253495,18.9888528 35.0210513,18.4905573 C34.9709058,18.4081754 34.9153875,18.3222116 34.9583694,18.2380387 L42.2402181,6.94991961 Z M35.1983516,22.3625093 L44.9659863,26.4995163 C45.0197137,26.5245891 45.0788138,26.547871 45.1020957,26.6033893 C45.1114161,26.6367783 45.1114161,26.6720822 45.1020957,26.7054712 C45.0734411,26.8487442 45.0483683,27.0117172 45.0483683,27.1764811 L45.0483683,27.4504907 C45.0483683,27.5185453 44.9785227,27.5471999 44.9140499,27.5740636 L44.8943498,27.5812273 C43.3470018,28.2420738 23.1705858,36.8456157 23.1401403,36.8456157 C23.1096948,36.8456157 23.0774584,36.8456157 23.0470129,36.8151702 C22.9932855,36.7614428 23.0470129,36.6862245 23.0953675,36.6181698 C23.1039163,36.6063654 23.112275,36.5944245 23.1204403,36.5823516 L31.1473084,24.1534215 L31.1616357,24.1319305 C31.2081994,24.0567122 31.2619268,23.9725393 31.3478906,23.9725393 L31.4284816,23.9850757 C31.6111546,24.0101485 31.7723367,24.0334304 31.9353097,24.0334304 C33.15313,24.0334304 34.2814046,23.4406384 34.9619512,22.4269822 C34.9781656,22.3999137 34.9987395,22.3757091 35.0228422,22.3553457 C35.0711969,22.3195275 35.1428333,22.3374366 35.1983516,22.3625093 Z M24.0123145,38.8120372 L46.0047154,29.4330304 C46.0047154,29.4330304 46.0369518,29.4330304 46.0673973,29.4634759 C46.1873884,29.583467 46.2894704,29.6640581 46.3879706,29.7392764 L46.4363252,29.7697219 C46.481098,29.7947947 46.5258708,29.8234492 46.5294526,29.870013 C46.5294526,29.8879221 46.5294526,29.8986676 46.5258708,29.9147858 L44.6418312,41.4876599 L44.6346676,41.5342236 C44.6221312,41.6237692 44.6095948,41.7258512 44.525422,41.7258512 C43.5056658,41.7946821 42.5855624,42.3622914 42.0664996,43.2427538 L42.057545,43.2570811 C42.0324723,43.2982721 42.0091904,43.3376721 41.9679994,43.3591631 C41.9303903,43.3770722 41.8820357,43.3699085 41.8426356,43.360954 L24.3042332,39.7433115 C24.286324,39.7397297 24.0320145,38.8138281 24.0123145,38.8120372 Z" id="Shape"></path>
                </g>
            </g>
        </g>
    </g>
</svg>