<?xml version="1.0" encoding="UTF-8"?>
<svg width="380px" height="307px" viewBox="0 0 380 307" version="1.1" xmlns="http://www.w3.org/2000/svg" xmlns:xlink="http://www.w3.org/1999/xlink">
    <!-- Generator: Sketch 52.5 (67469) - http://www.bohemiancoding.com/sketch -->
    <title>feature-branch-build</title>
    <desc>Created with Sketch.</desc>
    <defs>
        <linearGradient x1="50%" y1="0%" x2="50%" y2="100%" id="linearGradient-1">
            <stop stop-color="#0F1E24" offset="0%"></stop>
            <stop stop-color="#A3A9AC" offset="100%"></stop>
        </linearGradient>
    </defs>
    <g id="feature-branch-build" stroke="none" stroke-width="1" fill="none" fill-rule="evenodd">
        <path d="M11,0 L368.27346,0 C374.348592,-1.11598369e-15 379.27346,4.92486775 379.27346,11 L379.27346,295.65243 C379.27346,301.727562 374.348592,306.65243 368.27346,306.65243 L11,306.65243 C4.92486775,306.65243 7.43989126e-16,301.727562 0,295.65243 L0,11 C-7.43989126e-16,4.92486775 4.92486775,1.11598369e-15 11,0 Z" id="gradient-background" fill="url(#linearGradient-1)" opacity="0.0370535714"></path>
        <g id="Group" transform="translate(194.346094, 144.187841) rotate(90.000000) translate(-194.346094, -144.187841) translate(135.346094, 9.687841)">
            <polygon id="Rectangle-2" fill="#E0E3E3" opacity="0.762723214" points="47.4685679 108.5636 47.4685679 262.93207 37.4541752 262.93207 37.4541752 108.5636"></polygon>
            <polygon id="Rectangle-2" fill="#E8EAEA" transform="translate(73.002342, 137.101141) rotate(126.000000) translate(-73.002342, -137.101141) " points="37.9681961 132.293294 109.169776 131.894595 108.12299 141.913997 36.8349079 142.307687"></polygon>
            <circle id="Oval-3" fill="#E0E3E3" opacity="0.762723214" cx="42.4613716" cy="254.685458" r="14.3062754"></circle>
            <circle id="Oval-3" fill="#FFFFFF" cx="43.4050792" cy="254.76409" r="5.41015773"></circle>
            <path d="M28.1550962,96.7148294 C28.1550962,88.8136917 34.5602338,82.408554 42.4613716,82.408554 C50.3625093,82.408554 56.7676469,88.8136917 56.7676469,96.7148294 C56.7676469,104.615967 50.3625093,111.021105 42.4613716,111.021105 C34.5602338,111.021105 28.1550962,104.615967 28.1550962,96.7148294 Z" id="Oval-3" fill="#E0E3E3" opacity="0.762723214"></path>
            <path d="M37.9949214,96.7934614 C37.9949214,93.8055138 40.4171315,91.3833037 43.4050792,91.3833037 C46.3930268,91.3833037 48.8152369,93.8055138 48.8152369,96.7934614 C48.8152369,99.781409 46.3930268,102.203619 43.4050792,102.203619 C40.4171315,102.203619 37.9949214,99.781409 37.9949214,96.7934614 Z" id="Oval-3" fill="#FFFFFF"></path>
            <g id="Group-2" transform="translate(88.255298, 0.000000)">
                <polygon id="Rectangle-2" fill="#E8EAEA" transform="translate(14.388568, 55.839970) rotate(90.000000) translate(-14.388568, -55.839970) " points="-12.017854 51.448822 40.7949904 51.448822 40.7949904 60.2311189 -12.017854 60.2311189"></polygon>
                <path d="M14.3885682,29.2039746 C22.2897059,29.2039746 28.6948435,22.798837 28.6948435,14.8976993 C28.6948435,6.99656155 22.2897059,0.591423887 14.3885682,0.591423887 C6.48743045,0.591423887 0.0822927927,6.99656155 0.0822927927,14.8976993 C0.0822927927,22.798837 6.48743045,29.2039746 14.3885682,29.2039746 Z" id="Oval-3" fill-opacity="0.292855525" fill="#00C7B7" transform="translate(14.388568, 14.897699) rotate(90.000000) translate(-14.388568, -14.897699) "></path>
                <path d="M14.3885682,20.386489 C17.3765158,20.386489 19.7987259,17.9642789 19.7987259,14.9763313 C19.7987259,11.9883837 17.3765158,9.56617354 14.3885682,9.56617354 C11.4006206,9.56617354 8.97841044,11.9883837 8.97841044,14.9763313 C8.97841044,17.9642789 11.4006206,20.386489 14.3885682,20.386489 Z" id="Oval-3" fill="#FFFFFF" transform="translate(14.388568, 14.976331) rotate(90.000000) translate(-14.388568, -14.976331) "></path>
                <path d="M14.3885682,111.021105 C22.2897059,111.021105 28.6948435,104.615967 28.6948435,96.7148294 C28.6948435,88.8136917 22.2897059,82.408554 14.3885682,82.408554 C6.48743045,82.408554 0.0822927927,88.8136917 0.0822927927,96.7148294 C0.0822927927,104.615967 6.48743045,111.021105 14.3885682,111.021105 Z" id="Oval-3" fill-opacity="0.78626019" fill="#00C7B7" transform="translate(14.388568, 96.714829) rotate(90.000000) translate(-14.388568, -96.714829) "></path>
                <path d="M14.3885682,102.203619 C17.3765158,102.203619 19.7987259,99.781409 19.7987259,96.7934614 C19.7987259,93.8055138 17.3765158,91.3833037 14.3885682,91.3833037 C11.4006206,91.3833037 8.97841044,93.8055138 8.97841044,96.7934614 C8.97841044,99.781409 11.4006206,102.203619 14.3885682,102.203619 Z" id="Oval-3" fill="#FFFFFF" transform="translate(14.388568, 96.793461) rotate(90.000000) translate(-14.388568, -96.793461) "></path>
            </g>
            <circle id="Oval-3" fill="#00C7B7" transform="translate(42.461372, 176.041801) rotate(90.000000) translate(-42.461372, -176.041801) " cx="42.4613716" cy="176.041801" r="14.3062754"></circle>
            <circle id="Oval-3" fill="#FFFFFF" transform="translate(42.461372, 176.041801) rotate(90.000000) translate(-42.461372, -176.041801) " cx="42.4613716" cy="176.041801" r="5.41479591"></circle>
            <g id="Group-4" transform="translate(42.471932, 176.890849) rotate(46.000000) translate(-42.471932, -176.890849) translate(12.471932, 146.890849)" stroke-linecap="round" stroke-width="3">
                <path d="M31.5655776,0.145053505 L31.5655776,8.59723637" id="Path-11" stroke="#F9D86E"></path>
                <path d="M31.5655776,50.8581507 L31.5655776,59.3103336" id="Path-11" stroke="#00C7B7"></path>
                <path d="M12.4742106,8.05295664 L12.4742106,16.5051395" id="Path-11" stroke="#00C7B7" transform="translate(12.474211, 12.279048) scale(-1, 1) rotate(45.000000) translate(-12.474211, -12.279048) "></path>
                <path d="M48.3337855,43.9125316 L48.3337855,52.3647144" id="Path-11" stroke="#E7645C" transform="translate(48.333785, 48.138623) scale(-1, 1) rotate(45.000000) translate(-48.333785, -48.138623) "></path>
                <path d="M50.0719426,8.05295664 L50.0719426,16.5051395" id="Path-11" stroke="#E7645C" transform="translate(50.071943, 12.279048) rotate(45.000000) translate(-50.071943, -12.279048) "></path>
                <path d="M14.2123677,43.9125316 L14.2123677,52.3647144" id="Path-11" stroke="#F9D86E" transform="translate(14.212368, 48.138623) rotate(45.000000) translate(-14.212368, -48.138623) "></path>
                <path d="M4.97996623,26.1456629 L4.97996623,34.5978458" id="Path-11" stroke="#E7645C" transform="translate(4.979966, 30.371754) rotate(-90.000000) translate(-4.979966, -30.371754) "></path>
                <path d="M55.6930634,26.1456629 L55.6930634,34.5978458" id="Path-11" stroke="#F9D86E" transform="translate(55.693063, 30.371754) rotate(-90.000000) translate(-55.693063, -30.371754) "></path>
            </g>
        </g>
    </g>
</svg>