<?xml version="1.0" encoding="UTF-8"?>
<svg width="620px" height="284px" viewBox="0 0 620 284" version="1.1" xmlns="http://www.w3.org/2000/svg" xmlns:xlink="http://www.w3.org/1999/xlink">
    <!-- Generator: Sketch 52.5 (67469) - http://www.bohemiancoding.com/sketch -->
    <title>infrastructure-management</title>
    <desc>Created with Sketch.</desc>
    <defs>
        <path d="M25.6789073,0.436414089 L202.278674,0.436414089 C205.170598,0.436414089 207.514965,2.78078133 207.514965,5.67270487 L207.514965,142.255617 L20.4426165,142.255617 L20.4426165,5.67270487 C20.4426165,2.78078133 22.7869838,0.436414089 25.6789073,0.436414089 Z" id="path-1"></path>
        <filter x="-17.9%" y="-20.8%" width="135.8%" height="147.2%" filterUnits="objectBoundingBox" id="filter-2">
            <feOffset dx="0" dy="4" in="SourceAlpha" result="shadowOffsetOuter1"></feOffset>
            <feGaussianBlur stdDeviation="10.5" in="shadowOffsetOuter1" result="shadowBlurOuter1"></feGaussianBlur>
            <feColorMatrix values="0 0 0 0 0   0 0 0 0 0   0 0 0 0 0  0 0 0 0.0683876812 0" type="matrix" in="shadowBlurOuter1"></feColorMatrix>
        </filter>
        <path d="M68.2464582,34.9048497 L68.2464582,142.255617 L20.4426165,142.255617 L20.4426165,34.9048497 L20.4426165,15.8397921 L207.514965,15.8397921 L207.514965,34.9048497 L68.2464582,34.9048497 Z" id="path-3"></path>
        <filter x="-17.9%" y="-23.3%" width="135.8%" height="153.0%" filterUnits="objectBoundingBox" id="filter-4">
            <feOffset dx="0" dy="4" in="SourceAlpha" result="shadowOffsetOuter1"></feOffset>
            <feGaussianBlur stdDeviation="10.5" in="shadowOffsetOuter1" result="shadowBlurOuter1"></feGaussianBlur>
            <feColorMatrix values="0 0 0 0 0   0 0 0 0 0   0 0 0 0 0  0 0 0 0.0683876812 0" type="matrix" in="shadowBlurOuter1"></feColorMatrix>
        </filter>
        <path d="M6.07604661,0.436414089 L182.675813,0.436414089 C185.567737,0.436414089 187.912104,2.78078133 187.912104,5.67270487 L187.912104,16.0649055 L0.839755826,16.0649055 L0.839755826,5.67270487 C0.839755826,2.78078133 3.18412306,0.436414089 6.07604661,0.436414089 Z" id="path-5"></path>
        <filter x="-9.1%" y="-83.2%" width="118.2%" height="317.6%" filterUnits="objectBoundingBox" id="filter-6">
            <feOffset dx="0" dy="4" in="SourceAlpha" result="shadowOffsetOuter1"></feOffset>
            <feGaussianBlur stdDeviation="5" in="shadowOffsetOuter1" result="shadowBlurOuter1"></feGaussianBlur>
            <feColorMatrix values="0 0 0 0 0   0 0 0 0 0   0 0 0 0 0  0 0 0 0.0683876812 0" type="matrix" in="shadowBlurOuter1"></feColorMatrix>
        </filter>
        <linearGradient x1="100%" y1="93.4354891%" x2="0%" y2="93.4354891%" id="linearGradient-7">
            <stop stop-color="#00C7B7" stop-opacity="0.4212281" offset="0%"></stop>
            <stop stop-color="#01AD9F" stop-opacity="0.115290987" offset="100%"></stop>
            <stop stop-color="#00C7B7" stop-opacity="0.111129982" offset="100%"></stop>
        </linearGradient>
        <polygon id="path-8" points="9.77918166 72.0761056 18.6918837 87.5133584 0.866479601 87.5133584"></polygon>
        <filter x="-123.4%" y="-129.6%" width="346.8%" height="385.0%" filterUnits="objectBoundingBox" id="filter-9">
            <feOffset dx="0" dy="2" in="SourceAlpha" result="shadowOffsetOuter1"></feOffset>
            <feGaussianBlur stdDeviation="7" in="shadowOffsetOuter1" result="shadowBlurOuter1"></feGaussianBlur>
            <feColorMatrix values="0 0 0 0 0   0 0 0 0 0   0 0 0 0 0  0 0 0 0.0683876812 0" type="matrix" in="shadowBlurOuter1"></feColorMatrix>
        </filter>
        <polygon id="path-10" points="9.77918166 61.2945322 18.6918837 76.731785 0.866479601 76.731785"></polygon>
        <filter x="-123.4%" y="-129.6%" width="346.8%" height="385.0%" filterUnits="objectBoundingBox" id="filter-11">
            <feOffset dx="0" dy="2" in="SourceAlpha" result="shadowOffsetOuter1"></feOffset>
            <feGaussianBlur stdDeviation="7" in="shadowOffsetOuter1" result="shadowBlurOuter1"></feGaussianBlur>
            <feColorMatrix values="0 0 0 0 0   0 0 0 0 0   0 0 0 0 0  0 0 0 0.0683876812 0" type="matrix" in="shadowBlurOuter1"></feColorMatrix>
        </filter>
        <polygon id="path-12" points="9.77918166 41.0382429 18.6918837 56.4754957 0.866479601 56.4754957"></polygon>
        <filter x="-123.4%" y="-129.6%" width="346.8%" height="385.0%" filterUnits="objectBoundingBox" id="filter-13">
            <feOffset dx="0" dy="2" in="SourceAlpha" result="shadowOffsetOuter1"></feOffset>
            <feGaussianBlur stdDeviation="7" in="shadowOffsetOuter1" result="shadowBlurOuter1"></feGaussianBlur>
            <feColorMatrix values="0 0 0 0 0   0 0 0 0 0   0 0 0 0 0  0 0 0 0.0683876812 0" type="matrix" in="shadowBlurOuter1"></feColorMatrix>
        </filter>
        <polygon id="path-14" points="9.77918166 20.7819535 18.6918837 36.2192063 0.866479601 36.2192063"></polygon>
        <filter x="-123.4%" y="-129.6%" width="346.8%" height="385.0%" filterUnits="objectBoundingBox" id="filter-15">
            <feOffset dx="0" dy="2" in="SourceAlpha" result="shadowOffsetOuter1"></feOffset>
            <feGaussianBlur stdDeviation="7" in="shadowOffsetOuter1" result="shadowBlurOuter1"></feGaussianBlur>
            <feColorMatrix values="0 0 0 0 0   0 0 0 0 0   0 0 0 0 0  0 0 0 0.0683876812 0" type="matrix" in="shadowBlurOuter1"></feColorMatrix>
        </filter>
        <polygon id="path-16" points="9.77918166 0.5256641 18.6918837 15.9629169 0.866479601 15.9629169"></polygon>
        <filter x="-123.4%" y="-129.6%" width="346.8%" height="385.0%" filterUnits="objectBoundingBox" id="filter-17">
            <feOffset dx="0" dy="2" in="SourceAlpha" result="shadowOffsetOuter1"></feOffset>
            <feGaussianBlur stdDeviation="7" in="shadowOffsetOuter1" result="shadowBlurOuter1"></feGaussianBlur>
            <feColorMatrix values="0 0 0 0 0   0 0 0 0 0   0 0 0 0 0  0 0 0 0.0683876812 0" type="matrix" in="shadowBlurOuter1"></feColorMatrix>
        </filter>
        <linearGradient x1="50%" y1="0%" x2="50%" y2="100%" id="linearGradient-18">
            <stop stop-color="#FF8E7A" offset="0%"></stop>
            <stop stop-color="#FF8E7A" stop-opacity="0.0335427989" offset="100%"></stop>
        </linearGradient>
        <path d="M4.32728305,61.928718 C1.61472304,55.1588266 0.258443041,49.8984899 0.258443041,46.1477079 C0.258443041,40.5215348 2.29286305,37.2101749 2.29286305,33.0377568 C2.29286305,28.8653387 2.08604859,24.2107836 3.5521669,23.020377 C5.01828522,21.8299704 7.64346142,28.1162285 8.35427333,28.1162285 C9.06508524,28.1162285 9.60220198,5.93099027 9.60220198,4.31548789 C9.60220198,2.69998551 10.4011909,0.558176367 12.0411745,0.558176367 C13.6811581,0.558176367 14.4859269,3.03939772 14.4859269,4.57334144 C14.4859269,5.59597059 15.0476369,10.0152742 16.1710569,17.8312523 C18.5999169,17.5963564 20.3071614,17.8213986 21.2927904,18.506379 C22.2784194,19.1913595 23.060079,20.6960255 23.6377693,23.020377 C26.1548585,22.8414326 27.9446377,23.1128108 29.0071068,23.8345116 C30.0695758,24.5562124 30.5932369,25.9834513 30.57809,28.1162285 C33.9763671,29.1054398 35.8225369,30.4748881 36.1165991,32.2245736 C36.5576925,34.8491018 37.1305619,51.316065 37.1305619,54.060389 C37.1305619,55.8899383 36.6455432,58.2162593 35.6755057,61.0393521 L4.32728305,61.928718 Z" id="path-19"></path>
        <path d="M39.9345814,19.5155756 L58.5243224,19.5155756 C59.4848176,19.5155756 60.2634528,20.2942108 60.2634528,21.2547061 L60.2634528,22.8356326 C60.2634528,23.7961279 59.4848176,24.5747631 58.5243224,24.5747631 L39.9345814,24.5747631 C38.9740862,24.5747631 38.195451,23.7961279 38.195451,22.8356326 L38.195451,21.2547061 C38.195451,20.2942108 38.9740862,19.5155756 39.9345814,19.5155756 Z" id="path-21"></path>
        <filter x="-72.5%" y="-276.7%" width="245.0%" height="732.5%" filterUnits="objectBoundingBox" id="filter-22">
            <feOffset dx="0" dy="2" in="SourceAlpha" result="shadowOffsetOuter1"></feOffset>
            <feGaussianBlur stdDeviation="5" in="shadowOffsetOuter1" result="shadowBlurOuter1"></feGaussianBlur>
            <feColorMatrix values="0 0 0 0 0   0 0 0 0 0   0 0 0 0 0  0 0 0 0.0683876812 0" type="matrix" in="shadowBlurOuter1"></feColorMatrix>
        </filter>
    </defs>
    <g id="infrastructure-management" stroke="none" stroke-width="1" fill="none" fill-rule="evenodd">
        <path d="M93.3966219,95.269841 C95.0204439,97.7287351 96.1757061,100.52428 96.7352166,103.529284 L103.284757,103.529284 C104.821549,103.529284 106.067366,104.7751 106.067366,106.311892 L106.067366,109.056238 C106.067366,110.59303 104.821549,111.838846 103.284757,111.838846 L96.7352166,111.838846 C96.1258423,115.111658 94.8097971,118.136012 92.9514,120.747591 L97.502676,125.460575 C98.5702217,126.566051 98.5394732,128.327633 97.4339973,129.395179 L95.4598805,131.301561 C94.3544046,132.369107 92.5928226,132.338359 91.5252769,131.232883 L86.974498,126.520413 C84.5156039,128.144235 81.720059,129.299497 78.7150552,129.859008 L78.7150552,136.408548 C78.7150552,137.945341 77.4692388,139.191157 75.9324465,139.191157 L73.1881012,139.191157 C71.6513088,139.191157 70.4054925,137.945341 70.4054925,136.408548 L70.4054925,129.859008 C67.1326814,129.249634 64.1083268,127.933588 61.4967478,126.075191 L56.7837635,130.626467 C55.6782876,131.694013 53.9167056,131.663264 52.8491599,130.557789 L50.9427775,128.583672 C49.8752318,127.478196 49.9059804,125.716614 51.0114563,124.649068 L55.7239258,120.098289 C54.1001038,117.639395 52.9448416,114.84385 52.3853311,111.838846 L45.8357907,111.838846 C44.2989984,111.838846 43.053182,110.59303 43.053182,109.056238 L43.053182,106.311892 C43.053182,104.7751 44.2989984,103.529284 45.8357907,103.529284 L52.3853311,103.529284 C52.9947054,100.256473 54.3107506,97.2321181 56.1691477,94.6205391 L51.6178716,89.9075548 C50.550326,88.8020789 50.5810745,87.0404969 51.6865504,85.9729512 L53.6606672,84.0665688 C54.7661431,82.9990231 56.5277251,83.0297716 57.5952708,84.1352475 L62.1460497,88.8477171 C64.6049438,87.2238951 67.4004887,86.0686328 70.4054925,85.5091224 L70.4054925,78.959582 C70.4054925,77.4227897 71.6513088,76.1769733 73.1881012,76.1769733 L75.9324465,76.1769733 C77.4692388,76.1769733 78.7150552,77.4227897 78.7150552,78.959582 L78.7150552,85.5091224 C81.9878663,86.1184967 85.0122208,87.4345418 87.6237998,89.292939 L92.3367842,84.7416629 C93.4422601,83.6741172 95.2038421,83.7048658 96.2713878,84.8103417 L98.1777702,86.7844585 C99.2453158,87.8899344 99.2145673,89.6515164 98.1090914,90.7190621 L93.3966219,95.269841 Z M74.5602738,116.158686 C79.2406776,116.158686 83.0348946,112.364469 83.0348946,107.684065 C83.0348946,103.003661 79.2406776,99.2094444 74.5602738,99.2094444 C69.87987,99.2094444 66.0856531,103.003661 66.0856531,107.684065 C66.0856531,112.364469 69.87987,116.158686 74.5602738,116.158686 Z" id="Combined-Shape" fill="#EBEBEB" transform="translate(74.560274, 107.684065) rotate(2.000000) translate(-74.560274, -107.684065) "></path>
        <path d="M55.9694982,57.544306 C57.2745376,59.5204793 58.2030032,61.7672134 58.6526727,64.1822863 L63.3701609,64.1822863 C64.9069533,64.1822863 66.1527696,65.4281026 66.1527696,66.964895 L66.1527696,68.0779384 C66.1527696,69.6147308 64.9069533,70.8605471 63.3701609,70.8605471 L58.6526727,70.8605471 C58.1629284,73.4908524 57.1052442,75.9214771 55.6116806,78.0203609 L58.8899956,81.4151554 C59.9575412,82.5206313 59.9267927,84.2822133 58.8213168,85.349759 L58.0206603,86.122944 C56.9151844,87.1904896 55.1536024,87.1597411 54.0860567,86.0542652 L50.8081413,82.6598844 C48.8319679,83.9649238 46.5852338,84.8933894 44.1701609,85.3430589 L44.1701609,90.0605471 C44.1701609,91.5973395 42.9243446,92.8431558 41.3875522,92.8431558 L40.2745088,92.8431558 C38.7377164,92.8431558 37.4919001,91.5973395 37.4919001,90.0605471 L37.4919001,85.3430589 C34.8615948,84.8533146 32.4309701,83.7956304 30.3320864,82.3020668 L26.9372918,85.5803817 C25.8318159,86.6479274 24.0702339,86.6171789 23.0026882,85.511703 L22.2295033,84.7110465 C21.1619576,83.6055706 21.1927061,81.8439886 22.298182,80.7764429 L25.6925628,77.4985275 C24.3875234,75.5223541 23.4590579,73.27562 23.0093884,70.8605471 L18.2919001,70.8605471 C16.7551077,70.8605471 15.5092914,69.6147308 15.5092914,68.0779384 L15.5092914,66.964895 C15.5092914,65.4281026 16.7551077,64.1822863 18.2919001,64.1822863 L23.0093884,64.1822863 C23.4991326,61.551981 24.5568168,59.1213563 26.0503804,57.0224726 L22.7720655,53.627678 C21.7045198,52.5222021 21.7352683,50.7606201 22.8407442,49.6930744 L23.6414007,48.9198894 C24.7468766,47.8523438 26.5084586,47.8830923 27.5760043,48.9885682 L30.8539198,52.382949 C32.8300931,51.0779096 35.0768272,50.149444 37.4919001,49.6997746 L37.4919001,44.9822863 C37.4919001,43.4454939 38.7377164,42.1996776 40.2745088,42.1996776 L41.3875522,42.1996776 C42.9243446,42.1996776 44.1701609,43.4454939 44.1701609,44.9822863 L44.1701609,49.6997746 C46.8004662,50.1895188 49.2310909,51.247203 51.3299747,52.7407666 L54.7247692,49.4624517 C55.8302451,48.394906 57.5918271,48.4256545 58.6593728,49.5311304 L59.4325578,50.3317869 C60.5001034,51.4372628 60.4693549,53.1988448 59.363879,54.2663905 L55.9694982,57.544306 Z M40.8310305,74.3323321 C44.5925952,74.3323321 47.6419459,71.2829814 47.6419459,67.5214167 C47.6419459,63.759852 44.5925952,60.7105013 40.8310305,60.7105013 C37.0694658,60.7105013 34.0201151,63.759852 34.0201151,67.5214167 C34.0201151,71.2829814 37.0694658,74.3323321 40.8310305,74.3323321 Z" id="Combined-Shape" fill="#EBEBEB" transform="translate(40.831031, 67.521417) rotate(-17.000000) translate(-40.831031, -67.521417) "></path>
        <path d="M76.4138508,29.1321344 C77.3751858,30.5878487 78.059124,32.242867 78.3903654,34.0218892 L81.4554703,34.0218892 C82.8139325,34.0218892 83.9151837,35.1231404 83.9151837,36.4816025 C83.9151837,37.8400647 82.8139325,38.9413159 81.4554703,38.9413159 L78.3903654,38.9413159 C78.0296037,40.8788854 77.2504787,42.6693635 76.1502705,44.2154704 L78.2804085,46.4212928 C79.2240756,47.3984887 79.1968952,48.9556559 78.2196993,49.899323 C77.2425033,50.8429901 75.6853362,50.8158097 74.741669,49.8386137 L72.6118254,47.6330961 C71.1561111,48.5944311 69.5010927,49.2783694 67.7220706,49.6096107 L67.7220706,52.6747156 C67.7220706,54.0331778 66.6208194,55.134429 65.2623572,55.134429 C63.903895,55.134429 62.8026439,54.0331778 62.8026439,52.6747156 L62.8026439,49.6096107 C60.8650744,49.248849 59.0745962,48.469724 57.5284894,47.3695159 L55.322667,49.4996538 C54.3454711,50.4433209 52.7883039,50.4161405 51.8446368,49.4389446 C50.9009696,48.4617486 50.9281501,46.9045815 51.905346,45.9609143 L54.1108637,43.8310707 C53.1495287,42.3753564 52.4655904,40.7203381 52.1343491,38.9413159 L49.0692442,38.9413159 C47.710782,38.9413159 46.6095308,37.8400647 46.6095308,36.4816025 C46.6095308,35.1231404 47.710782,34.0218892 49.0692442,34.0218892 L52.1343491,34.0218892 C52.4951108,32.0843197 53.2742358,30.2938416 54.3744439,28.7477347 L52.244306,26.5419123 C51.3006388,25.5647164 51.3278193,24.0075492 52.3050152,23.0638821 C53.2822111,22.120215 54.8393783,22.1473954 55.7830454,23.1245913 L57.9128891,25.330109 C59.3686034,24.368774 61.0236217,23.6848357 62.8026439,23.3535944 L62.8026439,20.2884895 C62.8026439,18.9300273 63.903895,17.8287761 65.2623572,17.8287761 C66.6208194,17.8287761 67.7220706,18.9300273 67.7220706,20.2884895 L67.7220706,23.3535944 C69.65964,23.7143561 71.4501182,24.4934811 72.996225,25.5936892 L75.2020475,23.4635513 C76.1792434,22.5198841 77.7364106,22.5470646 78.6800777,23.5242605 C79.6237448,24.5014564 79.5965644,26.0586236 78.6193684,27.0022907 L76.4138508,29.1321344 Z M65.2623572,41.498747 C68.0332496,41.498747 70.2795017,39.2524949 70.2795017,36.4816025 C70.2795017,33.7107102 68.0332496,31.4644581 65.2623572,31.4644581 C62.4914649,31.4644581 60.2452128,33.7107102 60.2452128,36.4816025 C60.2452128,39.2524949 62.4914649,41.498747 65.2623572,41.498747 Z" id="Combined-Shape" fill="#EBEBEB" transform="translate(65.262357, 36.481603) rotate(-17.000000) translate(-65.262357, -36.481603) "></path>
        <path d="M569.530089,196.216215 C571.019615,198.47175 572.079333,201.036095 572.59257,203.792574 L578.370311,203.792574 C579.907103,203.792574 581.15292,205.038391 581.15292,206.575183 L581.15292,208.6323 C581.15292,210.169092 579.907103,211.414909 578.370311,211.414909 L572.59257,211.414909 C572.033593,214.417047 570.826389,217.191278 569.121688,219.58687 L573.136696,223.744533 C574.204242,224.850009 574.173493,226.611591 573.068017,227.679136 L571.588251,229.10813 C570.482775,230.175676 568.721193,230.144927 567.653648,229.039451 L563.639096,224.882261 C561.38356,226.371787 558.819216,227.431506 556.062736,227.944743 L556.062736,233.722483 C556.062736,235.259276 554.81692,236.505092 553.280128,236.505092 L551.223011,236.505092 C549.686218,236.505092 548.440402,235.259276 548.440402,233.722483 L548.440402,227.944743 C545.438263,227.385766 542.664033,226.178562 540.26844,224.47386 L536.110778,228.488868 C535.005302,229.556414 533.24372,229.525665 532.176174,228.42019 L530.747181,226.940424 C529.679635,225.834948 529.710384,224.073366 530.81586,223.00582 L534.97305,218.991268 C533.483523,216.735733 532.423805,214.171389 531.910568,211.414909 L526.132828,211.414909 C524.596035,211.414909 523.350219,210.169092 523.350219,208.6323 L523.350219,206.575183 C523.350219,205.038391 524.596035,203.792574 526.132828,203.792574 L531.910568,203.792574 C532.469545,200.790436 533.676749,198.016205 535.38145,195.620613 L531.366443,191.46295 C530.298897,190.357474 530.329645,188.595892 531.435121,187.528347 L532.914887,186.099353 C534.020363,185.031808 535.781945,185.062556 536.849491,186.168032 L540.864043,190.325222 C543.119578,188.835696 545.683922,187.775978 548.440402,187.26274 L548.440402,181.485 C548.440402,179.948208 549.686218,178.702391 551.223011,178.702391 L553.280128,178.702391 C554.81692,178.702391 556.062736,179.948208 556.062736,181.485 L556.062736,187.26274 C559.064875,187.821717 561.839105,189.028921 564.234698,190.733623 L568.392361,186.718615 C569.497836,185.651069 571.259418,185.681818 572.326964,186.787294 L573.755957,188.26706 C574.823503,189.372536 574.792755,191.134118 573.687279,192.201663 L569.530089,196.216215 Z M552.251569,215.377483 C556.544888,215.377483 560.025311,211.89706 560.025311,207.603742 C560.025311,203.310423 556.544888,199.83 552.251569,199.83 C547.95825,199.83 544.477828,203.310423 544.477828,207.603742 C544.477828,211.89706 547.95825,215.377483 552.251569,215.377483 Z" id="Combined-Shape" fill="#EBEBEB" transform="translate(552.251569, 207.603742) rotate(2.000000) translate(-552.251569, -207.603742) "></path>
        <path d="M595.798931,234.522982 C596.934838,236.243044 597.742975,238.198603 598.134367,240.300683 L601.879847,240.300683 C603.416639,240.300683 604.662456,241.5465 604.662456,243.083292 L604.662456,243.330836 C604.662456,244.867629 603.416639,246.113445 601.879847,246.113445 L598.134367,246.113445 C597.708094,248.402864 596.787485,250.518481 595.487486,252.345351 L598.090422,255.04077 C599.157968,256.146246 599.127219,257.907828 598.021744,258.975374 L597.843675,259.147333 C596.738199,260.214878 594.976617,260.18413 593.909071,259.078654 L591.306483,256.383595 C589.586421,257.519502 587.630862,258.327638 585.528781,258.719031 L585.528781,262.464511 C585.528781,264.001303 584.282965,265.247119 582.746173,265.247119 L582.498628,265.247119 C580.961836,265.247119 579.716019,264.001303 579.716019,262.464511 L579.716019,258.719031 C577.4266,258.292757 575.310983,257.372149 573.484114,256.07215 L570.788694,258.675086 C569.683218,259.742632 567.921636,259.711883 566.854091,258.606407 L566.682132,258.428339 C565.614586,257.322863 565.645335,255.561281 566.750811,254.493735 L569.44587,251.891147 C568.309963,250.171084 567.501826,248.215526 567.110433,246.113445 L563.364954,246.113445 C561.828161,246.113445 560.582345,244.867629 560.582345,243.330836 L560.582345,243.083292 C560.582345,241.5465 561.828161,240.300683 563.364954,240.300683 L567.110433,240.300683 C567.536707,238.011264 568.457316,235.895647 569.757315,234.068778 L567.154378,231.373358 C566.086833,230.267882 566.117581,228.5063 567.223057,227.438755 L567.401126,227.266796 C568.506602,226.19925 570.268184,226.229999 571.335729,227.335474 L573.938318,230.030534 C575.65838,228.894627 577.613939,228.08649 579.716019,227.695097 L579.716019,223.949617 C579.716019,222.412825 580.961836,221.167009 582.498628,221.167009 L582.746173,221.167009 C584.282965,221.167009 585.528781,222.412825 585.528781,223.949617 L585.528781,227.695097 C587.8182,228.121371 589.933817,229.04198 591.760687,230.341978 L594.456106,227.739042 C595.561582,226.671496 597.323164,226.702245 598.39071,227.807721 L598.562669,227.98579 C599.630214,229.091265 599.599466,230.852847 598.49399,231.920393 L595.798931,234.522982 Z M582.6224,249.135289 C585.896468,249.135289 588.550625,246.481132 588.550625,243.207064 C588.550625,239.932996 585.896468,237.27884 582.6224,237.27884 C579.348332,237.27884 576.694176,239.932996 576.694176,243.207064 C576.694176,246.481132 579.348332,249.135289 582.6224,249.135289 Z" id="Combined-Shape" fill="#EBEBEB" transform="translate(582.622400, 243.207064) rotate(-17.000000) translate(-582.622400, -243.207064) "></path>
        <g id="Group" transform="translate(154.433985, 30.338475)">
            <g id="doc-weebsite-big" transform="translate(0.294043, 30.727484)">
                <g id="Rectangle-7">
                    <use fill="black" fill-opacity="1" filter="url(#filter-2)" xlink:href="#path-1"></use>
                    <use fill="#FFFFFF" fill-rule="evenodd" xlink:href="#path-1"></use>
                </g>
                <g id="Combined-Shape">
                    <use fill="black" fill-opacity="1" filter="url(#filter-4)" xlink:href="#path-3"></use>
                    <use fill="#0F1E24" fill-rule="evenodd" xlink:href="#path-3"></use>
                </g>
                <g id="Group-7" opacity="0.486941964" transform="translate(0.000000, 6.861001)" fill="#FFFFFF">
                    <polygon id="Rectangle-18" opacity="0.111104911" transform="translate(43.945249, 61.111533) rotate(30.000000) translate(-43.945249, -61.111533) " points="41.6164788 -1.08189688 46.6231371 -1.08189688 47.7370327 -1.08189688 46.1430559 123.304962 40.1534644 113.085246 41.5753919 2.12434472"></polygon>
                    <polygon id="Rectangle-18" opacity="0.104241071" transform="translate(31.301700, 45.531713) rotate(30.000000) translate(-31.301700, -45.531713) " points="39.7245186 -1.50279456 39.7245186 92.56622 22.8788814 64.4141239 22.8788814 8.32081039"></polygon>
                </g>
                <g id="Group-69" transform="translate(19.602861, 0.000000)">
                    <g id="Rectangle-7">
                        <use fill="black" fill-opacity="1" filter="url(#filter-6)" xlink:href="#path-5"></use>
                        <use fill="#FFFFFF" fill-rule="evenodd" xlink:href="#path-5"></use>
                    </g>
                    <circle id="Oval-2" fill="#FA3945" opacity="0.568694196" cx="9.2872661" cy="8.25065978" r="2.53605657"></circle>
                    <circle id="Oval-2" fill="#F6BC02" opacity="0.568694196" cx="17.2577296" cy="8.25065978" r="2.53605657"></circle>
                    <circle id="Oval-2" fill="#00C7B7" opacity="0.568694196" cx="25.2281931" cy="8.25065978" r="2.53605657"></circle>
                    <polygon id="Rectangle-12" fill="#E9EBEB" points="40.1807209 5.29957926 173.940274 5.29957926 173.940274 11.2017403 40.1807209 11.2017403"></polygon>
                </g>
                <g id="Group-70" transform="translate(79.391586, 47.046866)">
                    <path d="M3.29119492,0.57750124 L39.5509759,0.57750124 C40.9849875,0.57750124 42.1474837,1.73999739 42.1474837,3.17400907 L42.1474837,4.88979285 C42.1474837,6.32380452 40.9849875,7.48630067 39.5509759,7.48630067 L3.29119492,7.48630067 C1.85718324,7.48630067 0.694687094,6.32380452 0.694687094,4.88979285 L0.694687094,3.17400907 C0.694687094,1.73999739 1.85718324,0.57750124 3.29119492,0.57750124 Z" id="Rectangle-8" fill="#E9EBEB" opacity="0.878236607"></path>
                    <path d="M3.29119492,33.4797578 L113.82057,33.4797578 C115.254581,33.4797578 116.417078,34.6422539 116.417078,36.0762656 L116.417078,60.2456476 C116.417078,61.6796592 115.254581,62.8421554 113.82057,62.8421554 L3.29119492,62.8421554 C1.85718324,62.8421554 0.694687094,61.6796592 0.694687094,60.2456476 L0.694687094,36.0762656 C0.694687094,34.6422539 1.85718324,33.4797578 3.29119492,33.4797578 Z" id="Rectangle-4" fill="#E9EBEB" opacity="0.762723214"></path>
                    <path d="M11.2113898,42.6386937 L86.36134,42.6386937" id="Path-22" stroke-opacity="0.392153533" stroke="#BEC2C3" stroke-width="1.04347826"></path>
                    <path d="M11.2113898,49.603475 L38.4818607,49.603475" id="Path-22" stroke-opacity="0.392153533" stroke="#BEC2C3" stroke-width="1.04347826"></path>
                    <path d="M11.2113898,55.7046565 L49.6537392,55.7046565" id="Path-22" stroke-opacity="0.392153533" stroke="#BEC2C3" stroke-width="1.04347826"></path>
                    <path d="M2.26522687,71.2570876 L107.388646,71.2570876" id="Path-23" stroke-opacity="0.392153533" stroke="#BEC2C3" stroke-width="1.04347826"></path>
                    <path d="M2.26522687,14.965468 L107.388646,14.965468" id="Path-23" stroke-opacity="0.392153533" stroke="#BEC2C3" stroke-width="1.04347826"></path>
                    <path d="M2.26522687,24.1738975 L78.1217323,24.1738975" id="Path-23" stroke-opacity="0.392153533" stroke="#BEC2C3" stroke-width="1.04347826"></path>
                    <path d="M2.26522687,81.0127257 L87.8773704,81.0127257" id="Path-23" stroke-opacity="0.392153533" stroke="#BEC2C3" stroke-width="1.04347826"></path>
                </g>
                <g id="Group-40" transform="translate(30.383328, 47.046866)" stroke-linecap="round" stroke-width="2.60869565">
                    <path d="M0.883238793,2.27949414 L25.8458953,2.27949414" id="Path-18" stroke="#E7645C"></path>
                    <path d="M0.883238793,13.407607 L25.8458953,13.407607" id="Path-18" stroke="#00C7B7"></path>
                    <path d="M0.883238793,24.5357199 L25.8458953,24.5357199" id="Path-18" stroke="#F9D86E"></path>
                    <path d="M0.883238793,35.6638328 L25.8458953,35.6638328" id="Path-18" stroke="#E7645C"></path>
                    <path d="M0.883238793,46.7919457 L25.8458953,46.7919457" id="Path-18" stroke="#F9D86E"></path>
                    <path d="M0.883238793,57.9200586 L25.8458953,57.9200586" id="Path-18" stroke="#00C7B7"></path>
                </g>
            </g>
            <g id="upvote" transform="translate(224.675480, 91.139666)">
                <g id="Group-51" transform="translate(1.910331, 0.315231)">
                    <g id="Polygon" opacity="0.478962054">
                        <use fill="black" fill-opacity="1" filter="url(#filter-9)" xlink:href="#path-8"></use>
                        <use fill="url(#linearGradient-7)" fill-rule="evenodd" style="mix-blend-mode: multiply;" xlink:href="#path-8"></use>
                    </g>
                    <polygon id="Polygon" fill="#00C7B7" points="9.77918166 67.1753904 18.6918837 82.6126432 0.866479601 82.6126432"></polygon>
                    <g id="Polygon" opacity="0.478962054">
                        <use fill="black" fill-opacity="1" filter="url(#filter-11)" xlink:href="#path-10"></use>
                        <use fill="url(#linearGradient-7)" fill-rule="evenodd" style="mix-blend-mode: multiply;" xlink:href="#path-10"></use>
                    </g>
                    <g id="Polygon" opacity="0.478962054">
                        <use fill="black" fill-opacity="1" filter="url(#filter-13)" xlink:href="#path-12"></use>
                        <use fill="url(#linearGradient-7)" fill-rule="evenodd" style="mix-blend-mode: multiply;" xlink:href="#path-12"></use>
                    </g>
                    <g id="Polygon" opacity="0.478962054">
                        <use fill="black" fill-opacity="1" filter="url(#filter-15)" xlink:href="#path-14"></use>
                        <use fill="url(#linearGradient-7)" fill-rule="evenodd" style="mix-blend-mode: multiply;" xlink:href="#path-14"></use>
                    </g>
                    <g id="Polygon" opacity="0.478962054">
                        <use fill="black" fill-opacity="1" filter="url(#filter-17)" xlink:href="#path-16"></use>
                        <use fill="url(#linearGradient-7)" fill-rule="evenodd" style="mix-blend-mode: multiply;" xlink:href="#path-16"></use>
                    </g>
                </g>
                <g id="Group-52" transform="translate(0.910331, 78.411443)">
                    <mask id="mask-20" fill="white">
                        <use xlink:href="#path-19"></use>
                    </mask>
                    <use id="Path-19" fill="url(#linearGradient-18)" xlink:href="#path-19"></use>
                    <path d="M8.09473026,44.5274074 L7.91040434,24.4328463" id="Path-20" stroke="#FB6E77" stroke-width="0.694434783" mask="url(#mask-20)"></path>
                    <path d="M17.6322075,32.5862943 L16.4838765,16.4407181" id="Path-21" stroke="#FB6E77" stroke-width="0.694434783" mask="url(#mask-20)"></path>
                    <path d="M25.1639314,32.0432119 L23.8268867,21.5152864" id="Path-24" stroke="#FB6E77" stroke-width="0.694434783" mask="url(#mask-20)"></path>
                    <path d="M30.8757428,32.0414255 C30.9375202,30.2439258 30.9684089,28.9199281 30.9684089,28.0694324 C30.9684089,27.2189367 30.9375202,26.7271348 30.8757428,26.5940267" id="Path-25" stroke="#FB6E77" stroke-width="0.694434783" mask="url(#mask-20)"></path>
                </g>
            </g>
            <g id="machine" transform="translate(67.923912, 0.343050)">
                <polygon id="Path-62" fill="#EFF0F0" points="0.29735582 14.1658524 0.29735582 17.7327533 250.039733 15.9258866 224.571818 0.938277745"></polygon>
                <path d="M249.715038,107.803812 L253.494833,138.240826 L222.065002,107.803812 L249.715038,107.803812 Z M249.471602,105.843526 L221.053939,105.843526 L223.798675,80.6972307 L249.431465,105.520322 L249.471602,105.843526 Z M240.829607,36.2533708 L244.057046,62.2425056 L227.55711,46.2637764 L228.649753,36.2533708 L240.829607,36.2533708 Z M239.527866,34.2930848 L228.863719,34.2930848 L229.883189,24.953067 L239.527866,34.2930848 Z M244.846309,68.598091 L248.853662,100.867527 L224.202744,76.9952927 L225.119304,68.598091 L244.846309,68.598091 Z M244.368955,66.6378049 L225.333271,66.6378049 L227.153041,49.9657144 L244.368955,66.6378049 Z M250.183918,139.12774 L217.420944,139.12774 L220.553014,110.432829 L250.183918,139.12774 Z M240.153038,30.8052655 L230.287258,21.251129 L230.620014,18.2025313 L238.587978,18.2025313 L240.153038,30.8052655 Z" id="Combined-Shape" fill="#EFF0F0"></path>
                <polygon id="Rectangle-21" fill="#EFF0F0" points="217.227541 142.2713 255.476016 142.2713 260.391087 147.330487 212.382545 147.330487"></polygon>
                <g id="Path-7">
                    <use fill="black" fill-opacity="1" filter="url(#filter-22)" xlink:href="#path-21"></use>
                    <use fill="#0F1E24" fill-rule="evenodd" xlink:href="#path-21"></use>
                </g>
                <path d="M48.580698,27.6299717 L48.580698,33.4235595 C53.544541,34.2230795 56.0264625,36.705001 56.0264625,40.869324 C56.0264625,45.033647 53.544541,47.4755635 48.580698,48.1950734" id="Path-8" stroke="#0F1E24" stroke-width="1.73913043" stroke-linecap="round"></path>
            </g>
        </g>
    </g>
</svg>